<?xml version="1.0" encoding="UTF-8"?>
<svg version="1.1" xmlns="http://www.w3.org/2000/svg" width="1200" height="1200">
<path d="M0 0 C2.25297492 0.00564706 4.50594229 0.00846339 6.75892258 0.0110817 C28.91075368 0.04849146 50.84237605 0.52755251 72.84244919 3.31805801 C74.27353762 3.49192471 75.70469192 3.66525 77.13590622 3.83807755 C118.01857315 8.83841315 157.79078602 18.230215 196.84244919 31.31805801 C198.10363571 31.73257217 198.10363571 31.73257217 199.39030075 32.15546036 C275.02554011 57.0478783 345.59048023 99.5485372 404.36588669 153.08758926 C405.75177459 154.33576275 407.14364695 155.57763064 408.55648422 156.79521561 C413.47524269 161.03685399 418.14925691 165.46448248 422.74479294 170.05243301 C423.46679382 170.7711055 424.18879471 171.48977798 424.93267441 172.23022842 C426.44906992 173.74159561 427.96414464 175.25428905 429.47794724 176.76825333 C431.76525996 179.0533828 434.06045537 181.33038662 436.35612106 183.60712051 C443.26183924 190.48693908 450.02052489 197.31114153 456.00968552 205.01776505 C458.08240267 207.61922249 460.31047971 210.02417521 462.59244919 212.44305801 C468.65236344 219.02992134 473.95431654 226.16070845 479.32438278 233.31219864 C480.64207584 235.05329966 481.97712062 236.7767273 483.33073044 238.48993301 C497.23709002 256.15918989 509.46172091 274.94616855 520.84244919 294.31805801 C521.35227341 295.18076309 521.86209763 296.04346817 522.38737106 296.93231583 C559.07543679 359.21615172 583.9824743 427.4501933 596.21744919 498.69305801 C596.33310226 499.36335037 596.44875534 500.03364273 596.56791306 500.72424698 C597.25621371 504.76366925 597.88384615 508.80972882 598.48090744 512.86379242 C598.72403634 514.5142322 598.97045084 516.16419099 599.21998215 517.81367493 C601.68855812 534.41534813 602.31679169 550.71899656 602.31119919 567.48602676 C602.31651951 569.46784065 602.32185099 571.44965464 602.32806635 573.43146592 C602.34709584 579.64589821 602.35026319 585.86019643 602.34342575 592.07464981 C602.33755494 597.67217212 602.35159066 603.26921472 602.38444138 608.866642 C602.56102593 639.66430812 602.39519488 669.9236667 596.84244919 700.31805801 C596.52617407 702.21190816 596.21309291 704.10629692 595.90446091 706.00140762 C595.19573358 710.25166071 594.38727496 714.47016002 593.52994919 718.69305801 C593.31492752 719.77250183 593.31492752 719.77250183 593.09556198 720.87375259 C580.18739275 785.54827614 556.58872104 848.59323921 522.84244919 905.31805801 C522.26752731 906.28952774 521.69260544 907.26099747 521.10026169 908.26190567 C513.77755155 920.59499635 506.15277972 932.62859346 497.84244919 944.31805801 C496.99175872 945.52869344 496.14149566 946.73962931 495.29166794 947.95087051 C477.43626198 973.29302294 457.58014432 998.02283119 435.39713669 1019.72821426 C433.7230059 1021.44020228 432.19604541 1023.23570198 430.65494919 1025.06805801 C427.16851513 1029.11985976 423.28354549 1032.67666245 419.31852341 1036.24628067 C416.37701944 1038.89722032 413.53393785 1041.59840306 410.77994919 1044.44305801 C406.98046402 1048.30547461 402.84193803 1051.65257314 398.61979294 1055.04071426 C396.00720666 1057.18296152 393.51435903 1059.40446373 391.02994919 1061.69305801 C385.53956039 1066.6765095 379.76375112 1071.24385247 373.88395309 1075.75214005 C372.48509235 1076.82512412 371.08906777 1077.90181296 369.69547653 1078.98163223 C349.11309419 1094.90469622 327.41036754 1109.36132683 304.84244919 1122.31805801 C304.10832809 1122.73958145 303.374207 1123.16110489 302.61783981 1123.59540176 C297.3975403 1126.57445269 292.13104368 1129.46234577 286.84244919 1132.31805801 C285.99940231 1132.77648087 285.15635544 1133.23490372 284.28776169 1133.70721817 C260.01301138 1146.85455819 234.81858237 1157.98569571 208.84244919 1167.31805801 C208.2057933 1167.54795425 207.56913742 1167.77785049 206.91318893 1168.01471329 C175.86662037 1179.2025122 143.99677442 1187.79885398 111.52994919 1193.75555801 C109.81352219 1194.07145889 109.81352219 1194.07145889 108.06241989 1194.39374161 C104.81352689 1194.95471127 101.56291972 1195.45502095 98.30140305 1195.9346962 C96.57174159 1196.20435809 94.84572349 1196.49793864 93.12299728 1196.80884171 C65.54207232 1201.76902149 37.55234036 1200.92938242 9.63694638 1200.8323341 C4.79281798 1200.81725193 -0.05098324 1200.82268723 -4.89509964 1200.83954239 C-63.10864276 1201.03691786 -63.10864276 1201.03691786 -90.15755081 1196.31805801 C-91.77323217 1196.06980505 -93.38962666 1195.82611757 -95.00691605 1195.58856583 C-98.73861228 1195.03046973 -102.44774254 1194.3836475 -106.15755081 1193.69305801 C-106.80413651 1193.57411179 -107.4507222 1193.45516556 -108.1169014 1193.3326149 C-157.62704942 1184.14871077 -205.51783113 1168.48575286 -251.15755081 1147.31805801 C-252.65487747 1146.63211563 -252.65487747 1146.63211563 -254.18245316 1145.93231583 C-268.10508846 1139.54257836 -281.46998814 1132.41220546 -294.71760941 1124.72528458 C-296.74577024 1123.55555083 -298.78213942 1122.40758913 -300.83333206 1121.27899551 C-318.18490561 1111.66041873 -334.87248182 1100.74462907 -350.53059769 1088.5685463 C-352.90787001 1086.74135709 -355.34407251 1084.99984524 -357.78255081 1083.25555801 C-372.11082217 1072.86809671 -385.60314456 1061.46125353 -398.68098831 1049.54852676 C-400.0684979 1048.29889273 -401.4621044 1047.05568453 -402.87680435 1045.83691788 C-407.74881004 1041.63660156 -412.37089752 1037.2514797 -416.91145706 1032.69696426 C-417.61600525 1031.9933728 -418.32055344 1031.28978134 -419.04645157 1030.56486893 C-420.52408448 1029.08791153 -422.00047538 1027.60971059 -423.47566605 1026.13031387 C-425.71421563 1023.88640716 -427.95805554 1021.64789097 -430.20247269 1019.40985489 C-431.64745485 1017.96421183 -433.09212673 1016.51825856 -434.53645706 1015.07196426 C-435.19706635 1014.41337921 -435.85767563 1013.75479416 -436.53830338 1013.07625198 C-440.94212515 1008.65054656 -445.09307826 1004.05600935 -449.15755081 999.31805801 C-450.11918603 998.21206349 -451.08132161 997.10650353 -452.04426956 996.00165176 C-491.69077586 950.16693417 -525.1228887 898.00527027 -549.15755081 842.31805801 C-549.59486526 841.31113907 -550.03217972 840.30422012 -550.48274612 839.26678848 C-573.25343705 786.39261302 -587.93812668 730.49763558 -594.9004097 673.39947891 C-595.14339307 671.43265743 -595.40028835 669.4675691 -595.65803909 667.50262833 C-601.16106794 624.28649488 -601.25636054 576.57351004 -595.4361763 533.39227676 C-595.13390753 531.14204636 -594.84450372 528.89034137 -594.55550003 526.63837051 C-585.929159 460.24741783 -567.29977134 396.1936504 -537.55403519 336.14618301 C-536.2436638 333.49245187 -534.95529462 330.8292758 -533.67317581 328.16180801 C-515.10083938 289.83649763 -490.72219574 253.81179454 -463.58577347 221.05047989 C-461.54492591 218.57494924 -459.54327946 216.06807587 -457.53255081 213.56805801 C-453.51020831 208.65104007 -449.25916009 203.98420011 -444.93098831 199.33758926 C-442.87992647 197.12930001 -440.90042921 194.86978461 -438.93318558 192.5866127 C-435.424506 188.57114231 -431.74970296 184.76500756 -427.97395706 181.00165176 C-427.31475769 180.34149567 -426.65555832 179.68133957 -425.97638321 179.00117874 C-424.59358246 177.61770295 -423.20954006 176.23546718 -421.82429886 174.85443497 C-419.72524738 172.76074132 -417.63159141 170.66175927 -415.53841019 168.56219864 C-414.18391295 167.20836231 -412.8291055 165.85483626 -411.47395706 164.50165176 C-410.85911957 163.88479004 -410.24428207 163.26792831 -409.61081314 162.63237381 C-405.28739122 158.33176255 -400.7830211 154.29037053 -396.15755081 150.31805801 C-395.06343428 149.36795911 -393.96961856 148.41751351 -392.87630081 147.46649551 C-322.93025029 87.05707336 -240.74527035 43.44315511 -72.40755081 4.00555801 C-71.2461055 3.85828262 -70.08466019 3.71100723 -68.88801956 3.55926895 C-64.98194797 3.09750467 -61.07263511 2.69356414 -57.15755081 2.31805801 C-55.83953476 2.18885468 -55.83953476 2.18885468 -54.49489212 2.05704117 C-36.33027439 0.32635856 -18.2293958 -0.0464345 0 0 Z " fill="#1CA1F2" transform="translate(598.1575508117676,-0.3180580139160156)"/>
</svg>
