<svg width="1001" height="312" viewBox="0 0 1001 312" fill="none" xmlns="http://www.w3.org/2000/svg">
<g clip-path="url(#clip0_3321_22)">
<path d="M362.863 194V192.8L365.263 191.96C366.863 191.48 367.903 190.76 368.383 189.8C368.943 188.84 369.223 187.56 369.223 185.96V123.08C369.223 121.48 368.943 120.2 368.383 119.24C367.823 118.28 366.743 117.52 365.143 116.96L362.863 116V114.8H392.023C403.943 114.8 412.543 117 417.823 121.4C423.183 125.72 425.863 131.44 425.863 138.56C425.863 143.12 424.743 147.32 422.503 151.16C420.343 154.92 416.743 157.92 411.703 160.16C406.663 162.4 399.863 163.52 391.303 163.52H387.223V185.6C387.223 188.72 388.783 190.76 391.903 191.72L395.503 192.8V194H362.863ZM387.223 161.12H391.783C395.703 161.12 398.903 160.48 401.383 159.2C403.863 157.92 405.703 155.68 406.903 152.48C408.103 149.28 408.703 144.84 408.703 139.16C408.703 133.4 408.023 128.92 406.663 125.72C405.383 122.52 403.463 120.32 400.903 119.12C398.343 117.84 395.143 117.2 391.303 117.2H387.223V161.12ZM458.49 195.8C452.41 195.8 447.13 194.56 442.65 192.08C438.17 189.52 434.69 185.92 432.21 181.28C429.81 176.64 428.61 171.2 428.61 164.96C428.61 158.72 429.89 153.32 432.45 148.76C435.09 144.2 438.65 140.68 443.13 138.2C447.69 135.72 452.81 134.48 458.49 134.48C464.17 134.48 469.25 135.72 473.73 138.2C478.21 140.6 481.73 144.08 484.29 148.64C486.93 153.2 488.25 158.64 488.25 164.96C488.25 171.28 487.01 176.76 484.53 181.4C482.13 185.96 478.69 189.52 474.21 192.08C469.81 194.56 464.57 195.8 458.49 195.8ZM458.49 193.4C461.29 193.4 463.53 192.6 465.21 191C466.89 189.4 468.09 186.56 468.81 182.48C469.61 178.4 470.01 172.64 470.01 165.2C470.01 157.68 469.61 151.88 468.81 147.8C468.09 143.72 466.89 140.88 465.21 139.28C463.53 137.68 461.29 136.88 458.49 136.88C455.69 136.88 453.41 137.68 451.65 139.28C449.97 140.88 448.73 143.72 447.93 147.8C447.21 151.88 446.85 157.68 446.85 165.2C446.85 172.64 447.21 178.4 447.93 182.48C448.73 186.56 449.97 189.4 451.65 191C453.41 192.6 455.69 193.4 458.49 193.4ZM493.412 194V192.8L494.852 192.32C497.732 191.36 499.172 189.36 499.172 186.32V122.12C499.172 120.52 498.852 119.32 498.212 118.52C497.572 117.64 496.452 117 494.852 116.6L493.292 116.24V115.04L515.252 109.88L516.692 110.96L516.212 127.76V168.8C516.212 171.76 516.212 174.72 516.212 177.68C516.292 180.56 516.332 183.44 516.332 186.32C516.332 187.92 516.652 189.24 517.292 190.28C517.932 191.24 519.012 191.96 520.532 192.44L522.092 192.8V194H493.412ZM527.628 194V192.8L529.428 192.2C532.148 191.32 533.508 189.36 533.508 186.32V122.12C533.508 120.52 533.188 119.32 532.548 118.52C531.908 117.72 530.788 117.08 529.188 116.6L527.628 116.24V115.04L549.588 109.88L551.028 110.96L550.668 127.76V186.32C550.668 189.52 551.988 191.52 554.628 192.32L556.308 192.8V194H527.628ZM572.148 194L550.788 164L572.988 143.48C574.028 142.52 574.628 141.52 574.788 140.48C575.028 139.36 574.348 138.56 572.748 138.08L570.708 137.48V136.28H588.588V137.48L584.988 138.44C583.228 139 581.788 139.68 580.668 140.48C579.628 141.2 578.348 142.24 576.828 143.6L563.388 156.2L584.868 186.08C586.148 187.84 587.348 189.2 588.468 190.16C589.588 191.12 591.028 191.92 592.788 192.56L593.268 192.8V194H572.148ZM614.4 195.8C609.76 195.8 605.84 194.48 602.64 191.84C599.52 189.2 597.96 185.4 597.96 180.44C597.96 176.68 599.88 173.24 603.72 170.12C607.56 166.92 613.6 164.52 621.84 162.92C623.12 162.68 624.56 162.44 626.16 162.2C627.76 161.88 629.44 161.56 631.2 161.24V151.76C631.2 146.32 630.52 142.52 629.16 140.36C627.88 138.12 625.84 137 623.04 137C621.12 137 619.6 137.64 618.48 138.92C617.36 140.12 616.64 142.24 616.32 145.28L616.08 146.6C615.92 150.04 615.08 152.56 613.56 154.16C612.04 155.76 610.16 156.56 607.92 156.56C605.84 156.56 604.12 155.92 602.76 154.64C601.4 153.36 600.72 151.64 600.72 149.48C600.72 146.2 601.84 143.44 604.08 141.2C606.4 138.96 609.44 137.28 613.2 136.16C616.96 135.04 621.04 134.48 625.44 134.48C632.56 134.48 638.04 136.24 641.88 139.76C645.8 143.2 647.76 148.84 647.76 156.68V183.2C647.76 186.8 649.44 188.6 652.8 188.6H655.44L656.52 189.56C655 191.48 653.32 192.96 651.48 194C649.72 195.04 647.2 195.56 643.92 195.56C640.4 195.56 637.6 194.76 635.52 193.16C633.52 191.48 632.2 189.28 631.56 186.56C629.16 189.12 626.68 191.32 624.12 193.16C621.64 194.92 618.4 195.8 614.4 195.8ZM621.72 188.48C623.32 188.48 624.8 188.12 626.16 187.4C627.6 186.6 629.28 185.4 631.2 183.8V163.64C630.4 163.8 629.6 163.96 628.8 164.12C628 164.28 627.08 164.44 626.04 164.6C622.36 165.56 619.4 167.2 617.16 169.52C615 171.76 613.92 174.8 613.92 178.64C613.92 181.92 614.68 184.4 616.2 186.08C617.72 187.68 619.56 188.48 621.72 188.48ZM684.43 195.8C679.71 195.8 675.47 194.76 671.71 192.68C667.95 190.52 664.95 187.24 662.71 182.84C660.55 178.36 659.47 172.64 659.47 165.68C659.47 158.64 660.71 152.84 663.19 148.28C665.67 143.64 668.95 140.2 673.03 137.96C677.11 135.64 681.55 134.48 686.35 134.48C689.15 134.48 691.83 134.76 694.39 135.32C696.95 135.88 699.23 136.72 701.23 137.84V122.24C701.23 120.56 700.95 119.32 700.39 118.52C699.91 117.72 698.83 117.16 697.15 116.84L694.87 116.36V115.16L716.71 109.88L718.03 110.96L717.55 127.76V186.44C717.55 188.04 717.83 189.36 718.39 190.4C718.95 191.36 719.99 192.04 721.51 192.44L722.59 192.8V194L702.07 195.32L700.99 191C698.83 192.44 696.35 193.6 693.55 194.48C690.83 195.36 687.79 195.8 684.43 195.8ZM691.39 191.36C694.75 191.36 697.83 190.36 700.63 188.36V140.72C697.67 138.8 694.63 137.84 691.51 137.84C687.67 137.84 684.39 140.08 681.67 144.56C678.95 148.96 677.59 155.92 677.59 165.44C677.59 174.96 678.87 181.68 681.43 185.6C683.99 189.44 687.31 191.36 691.39 191.36ZM758.256 195.8C752.176 195.8 746.896 194.56 742.416 192.08C737.936 189.52 734.456 185.92 731.976 181.28C729.576 176.64 728.376 171.2 728.376 164.96C728.376 158.72 729.656 153.32 732.216 148.76C734.856 144.2 738.416 140.68 742.896 138.2C747.456 135.72 752.576 134.48 758.256 134.48C763.936 134.48 769.016 135.72 773.496 138.2C777.976 140.6 781.496 144.08 784.056 148.64C786.696 153.2 788.016 158.64 788.016 164.96C788.016 171.28 786.776 176.76 784.296 181.4C781.896 185.96 778.456 189.52 773.976 192.08C769.576 194.56 764.336 195.8 758.256 195.8ZM758.256 193.4C761.056 193.4 763.296 192.6 764.976 191C766.656 189.4 767.856 186.56 768.576 182.48C769.376 178.4 769.776 172.64 769.776 165.2C769.776 157.68 769.376 151.88 768.576 147.8C767.856 143.72 766.656 140.88 764.976 139.28C763.296 137.68 761.056 136.88 758.256 136.88C755.456 136.88 753.176 137.68 751.416 139.28C749.736 140.88 748.496 143.72 747.696 147.8C746.976 151.88 746.616 157.68 746.616 165.2C746.616 172.64 746.976 178.4 747.696 182.48C748.496 186.56 749.736 189.4 751.416 191C753.176 192.6 755.456 193.4 758.256 193.4ZM815.618 195.8C810.498 195.8 806.498 194.52 803.618 191.96C800.818 189.4 799.418 185.32 799.418 179.72V138.68H791.138V137.48L794.018 137C796.498 136.44 798.618 135.64 800.378 134.6C802.218 133.56 804.018 132.16 805.778 130.4L815.618 119.48H816.818L816.458 136.28H829.898V138.68H816.338V181.88C816.338 184.68 816.938 186.8 818.138 188.24C819.418 189.68 821.018 190.4 822.938 190.4C824.618 190.4 826.098 190 827.378 189.2C828.658 188.32 829.938 187.16 831.218 185.72L832.418 186.92C830.818 189.64 828.618 191.8 825.818 193.4C823.018 195 819.618 195.8 815.618 195.8Z" fill="#FAFAF9"/>
<path d="M118.232 101.092C105.45 115.982 105.113 136.708 117.506 147.344C129.899 158.005 150.303 154.555 163.111 139.639C175.892 124.75 176.23 104.024 163.837 93.3881C158.988 89.2118 152.87 87.2144 146.492 87.2144C136.588 87.2144 126.01 92.0393 118.232 101.092Z" fill="white"/>
<path d="M114.523 178.134C104.904 189.548 109.078 208.925 123.856 221.402C138.634 233.88 158.442 234.762 168.061 223.348C177.68 211.934 173.506 192.557 158.728 180.08C150.898 173.465 141.668 170.119 133.294 170.119C125.853 170.119 119.06 172.765 114.549 178.134" fill="white"/>
<path d="M201.3 219.898C183.956 225.371 172.003 236.525 174.595 244.8C177.214 253.075 193.392 255.358 210.738 249.859C228.083 244.385 240.035 233.231 237.442 224.956C235.783 219.742 228.731 216.889 219.397 216.889C213.927 216.889 207.704 217.848 201.3 219.872" fill="white"/>
<path d="M174.155 70.4817C170.577 80.8058 181.933 94.139 199.563 100.287C217.193 106.435 234.383 103.036 237.96 92.7123C241.538 82.3881 230.183 69.0549 212.552 62.9071C206.615 60.8319 200.704 59.8462 195.363 59.8462C184.862 59.8462 176.514 63.6334 174.155 70.4817Z" fill="white"/>
<path d="M253.413 91.2882C248.305 93.3375 249.524 108.253 256.109 124.543C262.694 140.86 272.158 152.403 277.265 150.354C282.347 148.305 281.154 133.415 274.569 117.099C268.502 102.053 259.972 91.0548 254.683 91.0548C254.243 91.0548 253.828 91.1326 253.413 91.2882Z" fill="white"/>
<path d="M257.326 190.405C250.067 206.15 247.552 220.494 251.726 222.414C255.9 224.334 265.182 213.128 272.442 197.382C279.727 181.637 282.216 167.291 278.068 165.372C277.757 165.216 277.42 165.165 277.031 165.165C272.493 165.165 264.042 175.852 257.326 190.405Z" fill="white"/>
</g>
<defs>
<clipPath id="clip0_3321_22">
<rect width="1001" height="312" fill="white"/>
</clipPath>
</defs>
</svg>
